
<svg width="449px" height="473px" viewBox="0 0 449 473" version="1.1" xmlns="http://www.w3.org/2000/svg" xmlns:xlink="http://www.w3.org/1999/xlink">
    <g id="BasisID" stroke="none" stroke-width="1" fill="none" fill-rule="evenodd">
        <g id="0007_onboarding_complete" transform="translate(35.000000, -137.000000)">
            <g id="Group-2" transform="translate(-34.798603, 137.363480)">
                <path d="M381.658589,170.889793 L400.570987,332.867228 C403.197011,355.358115 387.093358,375.719395 364.602471,378.345418 C362.029171,378.645876 359.433185,378.701748 356.84934,378.512287 L165.712362,364.497084 C139.82448,362.598843 120.377033,340.073741 122.275273,314.185859 C123.260913,300.743869 129.969911,288.371878 140.697895,280.212899 L319.31302,144.370324 C336.457243,131.331588 360.925367,134.659743 373.964103,151.803966 C378.191397,157.362301 380.848735,163.953712 381.658589,170.889793 Z" id="Triangle" fill="#030303" opacity="0.2" transform="translate(224.072095, 242.562248) scale(-1, 1) rotate(-130.000000) translate(-224.072095, -242.562248) "></path>
                <path d="M342.829409,123.859532 L274.575591,55.6057142 C266.616665,47.6467885 253.592968,47.6467885 245.634043,55.6057142 L125.767797,175.713139 C117.808871,183.672065 117.808871,196.695762 125.767797,204.654687 L194.021615,272.667326 C201.980541,280.626251 215.004237,280.626251 222.963163,272.667326 L342.829409,152.559901 C350.788334,144.600975 350.788334,131.818458 342.829409,123.859532 Z" id="Shape" fill="#000000" fill-rule="nonzero" transform="translate(234.298603, 164.136520) rotate(78.000000) translate(-234.298603, -164.136520) "></path>
                <path d="M356.829409,109.859532 L288.575591,41.6057142 C280.616665,33.6467885 267.592968,33.6467885 259.634043,41.6057142 L139.767797,161.713139 C131.808871,169.672065 131.808871,182.695762 139.767797,190.654687 L208.021615,258.667326 C215.980541,266.626251 229.004237,266.626251 236.963163,258.667326 L356.829409,138.559901 C364.788334,130.600975 364.788334,117.818458 356.829409,109.859532 Z" id="Shape" fill="#FFFFFF" fill-rule="nonzero" transform="translate(248.298603, 150.136520) rotate(67.000000) translate(-248.298603, -150.136520) "></path>
                <path d="M300.13301,106.826566 C300.13301,107.308925 299.891831,107.791285 299.409472,108.273644 L293.138803,114.544313 C292.656444,115.026672 292.174085,115.267851 291.691725,115.267851 L282.526902,115.267851 C281.321004,115.267851 280.356286,116.232569 280.356286,117.438467 L280.356286,126.603291 C280.356286,127.08565 280.115106,127.809189 279.632747,128.050368 L275.291515,132.391601 C274.809156,132.87396 274.326797,133.115139 273.844437,133.115139 L264.679614,133.115139 C263.473716,133.115139 262.508998,134.079858 262.508998,135.285755 L262.508998,144.450579 C262.508998,144.932938 262.267818,145.656477 261.785459,145.897656 L249.244121,158.438994 C254.550072,170.739152 251.897097,185.692285 242.008734,195.580647 C228.743858,208.845524 207.278877,208.845524 193.772821,195.580647 C180.266765,182.315771 180.507945,160.60961 193.772821,147.344734 C203.902363,137.215192 218.614316,134.803396 230.914474,140.109347 L280.838645,90.1851761 C281.321004,89.702817 281.803363,89.4616374 282.285722,89.4616374 L297.962394,88.9792783 C299.168292,88.9792783 300.13301,89.9439966 300.13301,91.1498944 L300.13301,106.826566 Z" id="Path" fill="#4A38D2" fill-rule="nonzero" transform="translate(241.933264, 147.254291) rotate(67.000000) translate(-241.933264, -147.254291) "></path>
                <circle id="Oval" fill="#FFFFFF" fill-rule="nonzero" transform="translate(200.609787, 131.074224) rotate(22.000000) translate(-200.609787, -131.074224) " cx="200.609787" cy="131.074224" r="9.88826747"></circle>
                <g id="Group" transform="translate(275.798603, 67.636520)">
                    <circle id="Oval" fill="#030303" cx="30" cy="30" r="30"></circle>
                    <polyline id="Path-5" stroke="#FFFFFF" stroke-width="4" stroke-linecap="round" stroke-linejoin="round" points="20 30.5298804 27.9241673 39 44 23"></polyline>
                </g>
            </g>
        </g>
    </g>
</svg>
