
<svg width="237px" height="223px" viewBox="0 0 237 223" version="1.1" xmlns="http://www.w3.org/2000/svg" xmlns:xlink="http://www.w3.org/1999/xlink">
    <g id="BasisID" stroke="none" stroke-width="1" fill="none" fill-rule="evenodd">
        <g id="0002_onboarding-2" transform="translate(-89.000000, -179.000000)">
            <g id="Group-5" transform="translate(89.000000, 179.000000)">
                <path d="M7.79240868,136.145681 L76.9855163,18.6394981 C87.5907073,0.629387437 110.775726,-5.36625644 128.770704,5.24785264 C129.912222,5.92116215 131.017597,6.65404541 132.082257,7.44347062 L213.476896,67.7960563 C239.266009,86.9181957 244.683684,123.34354 225.577611,149.154339 C219.092309,157.915471 210.276975,164.675679 200.137421,168.663638 L76.8496081,217.153613 C47.9262078,228.529392 15.2650162,214.284518 3.89879492,185.336796 C-2.43208877,169.213173 -0.996049768,151.070552 7.79240868,136.145681 Z" id="Triangle" fill="#F4F5FF"></path>
                <g id="Group-2" transform="translate(32.809291, 27.657953)" fill-rule="nonzero">
                    <path d="M82.9817801,183.983187 C82.9817801,183.983187 150.753113,168.022092 150.762797,106.48935 L150.774011,35.2365314 C126.118789,33.2859177 103.325167,24.7347304 84.1517781,11.3460557 C64.5119668,25.6749327 40.8776866,34.8499929 15.236109,36.8825156 L15.2251516,106.507614 C15.2154668,168.046522 82.9817801,183.983187 82.9817801,183.983187 Z" id="Path" fill="#030303" transform="translate(82.999581, 97.664621) rotate(-11.000000) translate(-82.999581, -97.664621) "></path>
                    <path d="M98.99629,180.98372 C98.99629,180.98372 162.051981,166.141697 162.051981,108.884881 L162.051981,42.5834388 C139.111174,40.7647604 117.901533,32.8044565 100.059638,20.3433539 C81.7878187,33.6736357 59.7985795,42.2076551 35.940599,44.0951794 L35.940599,108.882013 C35.940599,166.144566 98.99629,180.98372 98.99629,180.98372 Z" id="Path" fill="#4A38D2"></path>
                    <path d="M85.8098201,121.35322 L71.6217945,107.154856 C68.9347763,104.46588 68.9346541,100.108302 71.6215216,97.419175 C74.3057579,94.7326815 78.6595948,94.7308517 81.3460883,97.415088 C81.3473045,97.4163032 81.3485202,97.4175188 81.3497355,97.4187349 L91.6724258,107.748236 C92.0317095,108.108734 92.6152083,108.108927 92.9752181,107.749154 C92.975381,107.748991 92.975544,107.748829 92.975218,107.748177 L122.375621,78.3230516 C125.059614,75.6368011 129.413057,75.6349715 132.099307,78.3189649 C132.10067,78.3203266 132.102032,78.3216888 132.103394,78.3230516 C134.790305,81.0122226 134.790305,85.3698342 132.103394,88.0590052 L98.8375174,121.352855 C95.2452312,124.958387 89.4102438,124.960839 85.8098203,121.363441 C85.8081156,121.361737 85.8064115,121.360033 85.8098201,121.35322 Z" id="Path" fill="#FFFFFF"></path>
                </g>
            </g>
        </g>
    </g>
</svg>
