
<svg width="152px" height="157px" viewBox="0 0 152 157" version="1.1" xmlns="http://www.w3.org/2000/svg" xmlns:xlink="http://www.w3.org/1999/xlink">
    <g id="BasisID" stroke="none" stroke-width="1" fill="none" fill-rule="evenodd">
        <g id="0000_splash-screen" transform="translate(-131.000000, -273.000000)">
            <g id="Group-16" transform="translate(131.000000, 273.000000)">
                <path d="M40.6717831,51.7946979 L106.023269,99.7282511 C108.939838,101.867323 113.046612,101.244433 115.192858,98.3376131 L144.723519,58.3455042 C146.869765,55.437075 146.246401,51.3456377 143.328217,49.2049566 L77.976731,1.27301289 C75.0601623,-0.86766827 70.9533882,-0.244778337 68.8071425,2.66204135 L39.2764811,42.6557598 C37.1302354,45.5625795 37.7535995,49.6540167 40.6717831,51.7946979" id="Fill-4" fill="#FFFFFF"></path>
                <path d="M18.2127133,62.3202432 L94.1100357,91.5582948 C97.4981067,92.8647792 101.3022,91.1746061 102.606923,87.7861652 L120.559005,41.1801282 C121.863727,37.7916874 120.175358,33.98556 116.787287,32.6806946 L40.8899643,3.44102412 C37.5018933,2.13615869 33.6978002,3.82471283 32.3914585,7.21477263 L14.4409955,53.8208096 C13.1362725,57.2092505 14.8246423,61.0153778 18.2127133,62.3202432" id="Fill-6" fill="#030303"></path>
                <path d="M127.820346,157 L25.1780378,157 C11.8242743,157 1,146.239276 1,132.965895 L1,54.0341046 C1,40.7591175 11.8242743,30 25.1780378,30 L127.820346,30 C141.174109,30 152,40.7591175 152,54.0341046 L152,132.965895 C152,146.239276 141.174109,157 127.820346,157" id="Fill-8" fill="#FFFFFF"></path>
                <path d="M22.7495963,74.6661304 L66.2504037,74.6661304 L66.2504037,74.6661304 C78.2136506,74.6661304 88,84.4165326 88,96.3322609 C88,108.249598 78.2136506,118 66.2504037,118 L22.7495963,118 C10.7863494,118 1,108.249598 1,96.3322609 C1,96.3049128 1.00161491,96.2759559 1.00161491,96.2469991 L1,96.2469991 L1,53 C1,64.9157283 10.7863494,74.6661304 22.7495963,74.6661304" id="Fill-10" fill="#030303"></path>
                <path d="M0.999,53.053 L0.999,52.947 L1.001,52.947 C1.001,52.983 0.999,53.017 0.999,53.053" id="Fill-12" fill="#FABC18"></path>
                <path d="M76,96 C76,91.5826569 72.4185724,88 67.999208,88 C63.5814276,88 60,91.5826569 60,96 C60,100.417343 63.5814276,104 67.999208,104 C72.4185724,104 76,100.417343 76,96" id="Fill-14" fill="#FFFFFF"></path>
            </g>
        </g>
    </g>
</svg>
