
<svg width="48px" height="48px" viewBox="0 0 48 48" version="1.1" xmlns="http://www.w3.org/2000/svg" xmlns:xlink="http://www.w3.org/1999/xlink">
    <g id="BasisID" stroke="none" stroke-width="1" fill="none" fill-rule="evenodd">
        <g id="0004_onboarding_wallet-pin-intro" transform="translate(-47.000000, -388.000000)">
            <g id="fluent:important-16-regular" transform="translate(47.000000, 388.000000)">
                <rect id="ViewBox" x="0" y="0" width="48" height="48"></rect>
                <path d="M22,34 C23.2504296,34 24.4058742,34.6670962 25.031089,35.75 C25.3436964,36.2914519 25.5000001,36.8957259 25.5000001,37.5 C25.5000001,38.1042741 25.3436964,38.7085481 25.031089,39.25 C24.4058742,40.3329038 23.2504296,41 22,41 C21.0335017,41 20.1585017,40.6082492 19.5251263,39.9748737 C18.8917508,39.3414983 18.5,38.4664983 18.5,37.5 C18.5,36.5335017 18.8917508,35.6585017 19.5251263,35.0251263 C20.1585017,34.3917508 21.0335017,34 22,34 Z M21.9997424,6.99999997 C23.553685,7.00040024 25.026819,7.69244864 26.0191853,8.88825244 C26.9573962,10.0187989 27.3738519,11.4887005 27.174739,12.9364954 L27.174739,12.9364954 L24.5694274,26.8651209 C24.4526225,27.4825611 24.1244614,28.0147926 23.6684037,28.3926641 C23.2123459,28.7705355 22.6283915,28.9940469 22,28.9940469 C21.3963142,28.9940469 20.8336267,28.7877851 20.3859698,28.4365105 C19.9425055,28.0885258 19.6117464,27.5983351 19.4660479,27.0253347 L19.4660479,27.0253347 L16.8629331,13.1870368 C16.561974,11.5789834 17.0279104,10.0319714 17.9784779,8.88709673 C18.9287964,7.74252196 20.3634285,7 21.9997424,6.99999997 Z" id="Shape" stroke="#4A38D2" stroke-width="2" fill-rule="nonzero"></path>
            </g>
        </g>
    </g>
</svg>
