
<svg width="25px" height="18px" viewBox="0 0 25 18" version="1.1" xmlns="http://www.w3.org/2000/svg" xmlns:xlink="http://www.w3.org/1999/xlink">
    <g id="Onboarding-Release-1" stroke="none" stroke-width="1" fill="none" fill-rule="evenodd">
        <g id="0005-1_onboarding_wallet-pin-setup-new" transform="translate(-305.000000, -709.000000)" fill="#FFFFFF" fill-rule="nonzero">
            <g id="Group-14" transform="translate(30.000000, 472.000000)">
                <path d="M279.277974,241.301261 L279.280457,241.299324 C279.277456,241.301582 279.275372,241.30315 279.272789,241.305291 C279.274323,241.304092 279.276002,241.30279 279.277974,241.301261 Z M279.286009,250.701476 L279.282781,250.698983 C279.283444,250.699514 279.284559,250.700367 279.286009,250.701476 Z M281.529394,239.042042 C281.668328,238.902286 281.77237,238.798704 281.869245,238.704188 C281.96591,238.607184 282.065566,238.510128 282.173936,238.407369 C282.26129,238.314122 282.271755,238.303114 282.286053,238.289049 C282.594592,237.978809 282.950441,237.719534 283.3428,237.519647 C283.72937,237.324739 284.142644,237.188085 284.576015,237.112975 C284.970043,237.048849 285.368281,237.014003 285.760469,237.008853 C285.951449,237.004324 286.117943,237.002 286.271538,237.002033 C286.440954,237.000339 286.575945,237 286.874788,237 L293.570204,237 C293.87123,237 294.005348,237.000337 294.167456,237.002 C294.328037,237.002 294.495098,237.004339 294.676115,237.008723 C295.075945,237.013958 295.474838,237.048798 295.876369,237.114105 C296.302642,237.187962 296.71557,237.324766 297.101846,237.520145 C297.493314,237.718337 297.850445,237.978056 298.158685,238.288458 C298.466755,238.597452 298.72482,238.952542 298.925965,239.345623 C299.120146,239.732502 299.256107,240.145945 299.330351,240.577968 C299.39486,240.972634 299.429626,241.371588 299.434105,241.759476 C299.435763,241.815092 299.437072,241.872823 299.438154,241.935751 C299.439308,242.002859 299.439953,242.055156 299.441241,242.174905 C299.44178,242.224928 299.44178,242.224928 299.4424,242.282276 L299.4424,249.06968 L299.4424,249.68276 C299.441518,249.743846 299.441518,249.743846 299.44077,249.807115 C299.438475,250.001427 299.437057,250.088692 299.43402,250.187789 C299.429222,250.591236 299.39412,250.993753 299.328145,251.397111 C299.25431,251.82739 299.11717,252.244366 298.919012,252.638759 C298.718883,253.030054 298.459069,253.387815 298.148365,253.699733 C297.836294,254.012312 297.476417,254.273176 297.082029,254.472636 C296.692888,254.66925 296.276682,254.806926 295.841591,254.882072 C295.443146,254.947503 295.040342,254.982852 294.642909,254.987711 C294.430534,254.992337 294.277367,254.994535 294.122795,254.994535 L286.677149,254.994535 L286.276902,254.994535 C286.108872,254.993865 285.938767,254.991576 285.769213,254.987816 C285.369445,254.982782 284.970624,254.947642 284.57096,254.881821 C284.14439,254.808137 283.731073,254.671733 283.341237,254.475419 C282.951785,254.276673 282.596126,254.017732 282.304536,253.724745 C282.279583,253.701456 282.26134,253.682572 282.212666,253.631252 C282.083464,253.504983 282.00075,253.423853 281.875271,253.298337 C281.778741,253.203505 281.702155,253.127258 281.531442,252.956544 L279.253799,250.675604 C279.179633,250.607182 279.139575,250.568209 279.071895,250.501325 C278.989559,250.420982 278.943544,250.375312 278.840734,250.272502 L276.765782,248.193734 C276.738192,248.165144 276.708475,248.134831 276.67409,248.100141 C276.647476,248.073293 276.626111,248.051881 276.576461,248.00223 C276.504576,247.930345 276.450753,247.875382 276.414229,247.835982 C276.240603,247.664362 276.076387,247.483486 275.922297,247.294148 C275.777971,247.141631 275.661277,246.965047 275.57754,246.772287 L275.554615,246.711591 C275.404919,246.248164 275.404919,245.74937 275.554615,245.285943 L275.576574,245.227482 C275.65968,245.034244 275.775758,244.857027 275.919538,244.703717 C276.074282,244.514057 276.238617,244.333212 276.400682,244.173291 C276.471336,244.099603 276.521325,244.048089 276.58451,243.984785 C276.607949,243.961149 276.607949,243.961149 276.640305,243.928697 C276.68931,243.879474 276.72742,243.840674 276.771836,243.794597 L278.841334,241.722768 C278.867788,241.696447 278.889044,241.675478 278.934952,241.630323 C278.988341,241.577802 279.013386,241.553046 279.041533,241.524904 C279.102793,241.464009 279.161884,241.406407 279.232893,241.339048 C279.237992,241.334641 280.003492,240.568972 281.529394,239.042042 Z M280.098832,242.351729 C280.100051,242.350806 280.100957,242.350121 280.102248,242.349064 C280.102212,242.349091 280.101074,242.34998 280.098832,242.351729 Z M280.172452,249.708862 L282.474462,252.014205 C282.642043,252.181786 282.716771,252.256183 282.813749,252.351492 C282.934216,252.471959 283.008684,252.545001 283.084892,252.616549 C283.109284,252.639287 283.105695,252.63554 283.179341,252.713195 C283.201369,252.736419 283.218777,252.75444 283.231329,252.76674 C283.441066,252.977046 283.682668,253.152946 283.944024,253.286333 C284.213185,253.42187 284.500922,253.516829 284.792708,253.567252 C285.121137,253.621325 285.453173,253.65058 285.792266,253.654879 C285.960276,253.658576 286.122386,253.660758 286.279537,253.661384 L294.122795,253.661384 C294.265781,253.661384 294.410357,253.659309 294.620194,253.654769 C294.957054,253.650625 295.293125,253.621133 295.620094,253.567462 C295.91953,253.51573 296.209613,253.419773 296.480598,253.282858 C296.74839,253.147423 296.992894,252.97019 297.204384,252.758357 C297.416923,252.544986 297.594957,252.299835 297.72992,252.035994 C297.866823,251.763487 297.962622,251.472211 298.013333,251.176812 C298.067666,250.844519 298.096959,250.508614 298.101208,250.160148 C298.104178,250.05979 298.10551,249.977785 298.107713,249.791368 C298.10844,249.729755 298.108464,249.727733 298.109297,249.66805 L298.109297,242.879861 L298.109297,242.290275 C298.108709,242.239558 298.108709,242.239558 298.108168,242.189243 C298.106911,242.072373 298.106288,242.021953 298.1052,241.958672 C298.104209,241.901033 298.103025,241.848806 298.101297,241.787227 C298.097358,241.454123 298.068397,241.121786 298.015566,240.798426 C297.964474,240.501214 297.869753,240.21318 297.736836,239.948314 C297.601119,239.683123 297.424928,239.440689 297.213657,239.228783 C297.004968,239.018631 296.763911,238.843325 296.499902,238.709663 C296.23173,238.574021 295.944886,238.47899 295.65562,238.428834 C295.325905,238.375237 294.992674,238.346133 294.651394,238.341624 C294.47306,238.337344 294.316357,238.33515 294.160757,238.335117 C293.997905,238.33348 293.866763,238.333151 293.570204,238.333151 L286.874788,238.333151 C286.58038,238.333151 286.448368,238.333482 286.278203,238.33515 C286.129554,238.33515 285.973255,238.337332 285.785087,238.341758 C285.45175,238.346166 285.119199,238.375264 284.796973,238.427669 C284.499948,238.479173 284.212174,238.574329 283.94549,238.708784 C283.681389,238.843335 283.44033,239.018973 283.226852,239.233585 C283.225839,239.234584 283.210986,239.250207 283.180436,239.282619 C283.121718,239.344916 283.109012,239.358202 283.087747,239.378047 C282.991818,239.469031 282.901106,239.557377 282.807122,239.651603 C282.709386,239.747046 282.609539,239.846451 282.47377,239.983022 L280.173778,242.286014 C280.141103,242.31631 280.129626,242.326952 280.119773,242.335187 C280.074915,242.378193 280.029241,242.422831 279.982804,242.468989 C279.952792,242.499 279.925712,242.525767 279.878941,242.571778 C279.824835,242.625001 279.805693,242.643884 279.783097,242.666362 L277.7243,244.727296 C277.682673,244.770658 277.639306,244.814809 277.585082,244.869275 C277.550978,244.903481 277.550978,244.903481 277.50776,244.946503 C277.473645,244.981081 277.428535,245.027566 277.350491,245.108619 C277.204827,245.252645 277.067249,245.404626 276.938389,245.563865 L276.89801,245.609352 C276.863826,245.644492 276.835275,245.684627 276.813311,245.728331 C276.763015,245.90464 276.762888,246.0915 276.812929,246.267863 C276.834864,246.310795 276.863257,246.350177 276.897166,246.384611 L276.941083,246.433863 C277.069238,246.592768 277.206233,246.744335 277.368058,246.90489 C277.41042,246.949867 277.455855,246.996264 277.519141,247.059551 C277.569478,247.109886 277.592454,247.132913 277.620903,247.161613 C277.659198,247.200246 277.69296,247.234686 277.717198,247.259941 L279.783831,249.330239 C279.881411,249.42782 279.924273,249.47036 279.979362,249.523812 C280.055682,249.599236 280.086235,249.629116 280.121756,249.663046 C280.12494,249.665727 280.141839,249.680999 280.172452,249.708862 Z M293.295609,242.315287 C293.519041,242.407831 293.664724,242.625857 293.664724,242.867696 C293.664724,243.028443 293.600361,243.178668 293.491584,243.288517 L293.498214,243.295471 L290.800343,245.995 L293.416762,248.607544 C293.446798,248.628157 293.47509,248.651611 293.501214,248.677733 L293.499881,248.679067 C293.670894,248.850066 293.722058,249.107245 293.629514,249.330678 C293.53697,249.55411 293.318945,249.699793 293.077105,249.699793 C292.916359,249.699793 292.766133,249.63543 292.656285,249.526653 L292.650997,249.531616 L289.956343,246.84 L287.265735,249.535616 L287.255189,249.524914 C287.201091,249.578541 287.136277,249.622287 287.063129,249.652584 C286.839697,249.745128 286.582518,249.693964 286.411518,249.522951 C286.298989,249.410767 286.235741,249.258406 286.235741,249.099509 C286.235741,248.940612 286.298989,248.788251 286.411518,248.676067 L286.411518,248.6774 C286.441844,248.647073 286.474879,248.620514 286.509956,248.597858 L289.110343,245.995 L286.411518,243.299137 L286.419888,243.290258 C286.36626,243.23616 286.322514,243.171346 286.292217,243.098198 C286.199673,242.874766 286.250837,242.617587 286.42185,242.446587 C286.534087,242.333648 286.686735,242.27014 286.845959,242.27014 C287.005183,242.27014 287.157831,242.333648 287.270068,242.446587 L287.267401,242.446587 C287.294921,242.474104 287.319336,242.503853 287.340549,242.535334 L289.955343,245.15 L292.574819,242.527728 C292.594996,242.4986 292.618056,242.470865 292.643998,242.444921 C292.814998,242.273908 293.072177,242.222744 293.295609,242.315287 Z" id="Delete"></path>
            </g>
        </g>
    </g>
</svg>
