
<svg width="12px" height="12px" viewBox="0 0 12 12" version="1.1" xmlns="http://www.w3.org/2000/svg" xmlns:xlink="http://www.w3.org/1999/xlink">
    <g id="BasisID" stroke="none" stroke-width="1" fill="none" fill-rule="evenodd">
        <g id="0001_onboarding-1" transform="translate(-252.000000, -830.000000)">
            <rect fill="#FFFFFF" x="0" y="0" width="414" height="896"></rect>
            <g id="Path" transform="translate(246.000000, 824.000000)" fill="#4A38D2">
                <path d="M17.4539137,6.61768205 C17.4935497,6.65821509 17.5299535,6.70191966 17.5627206,6.74838844 L17.624939,6.84782621 L17.624939,6.84782621 L17.6814137,6.96781234 L17.6814137,6.96781234 L17.716506,7.0718626 L17.716506,7.0718626 L17.7449907,7.20440974 L17.7449907,7.20440974 L17.7539442,7.28830839 L17.7539442,7.28830839 L17.7560828,7.39650224 L17.7560828,7.39650224 L17.3612068,14.6774947 L17.3453827,14.8132007 C17.2558994,15.3099296 16.833319,15.6888751 16.3282995,15.7207874 L16.2189106,15.7222305 L16.0834644,15.7088171 C15.5882483,15.6281526 15.2167573,15.2122439 15.1938203,14.7077121 L15.1943222,14.5983315 L15.436763,10.1390474 L8.14356448,17.4320027 L8.04818061,17.5171551 C7.61930198,17.858186 6.99910143,17.8355984 6.60914734,17.4456443 C6.21719349,17.0536904 6.19638361,16.4291226 6.5429118,16.000028 L6.62278898,15.9112272 L13.936522,8.59786888 L9.40251243,8.81419085 L9.26621609,8.8122142 C8.7294528,8.77075965 8.30212762,8.33446851 8.28566919,7.7819388 C8.26895361,7.22077582 8.68197892,6.73893314 9.22722125,6.65743071 L9.33794445,6.64656321 L16.6581673,6.29871246 L16.785263,6.30218551 L16.785263,6.30218551 L16.8416376,6.30871501 L16.8416376,6.30871501 C16.9443173,6.32290516 17.0415547,6.35150789 17.1319627,6.39234466 L17.2092697,6.43110426 L17.2092697,6.43110426 L17.3179481,6.50031775 L17.3179481,6.50031775 L17.3834024,6.55180144 L17.3834024,6.55180144 L17.4539137,6.61768205 Z"></path>
            </g>
        </g>
    </g>
</svg>
