
<svg width="36px" height="43px" viewBox="0 0 36 43" version="1.1" xmlns="http://www.w3.org/2000/svg" xmlns:xlink="http://www.w3.org/1999/xlink">
    <g id="BasisID" stroke="none" stroke-width="1" fill="none" fill-rule="evenodd">
        <g id="0004_onboarding_wallet-pin-intro" transform="translate(-50.000000, -371.000000)" fill="#4A38D2" fill-rule="nonzero">
            <g id="Group" transform="translate(24.000000, 342.000000)">
                <path d="M43.9855192,37.4824332 C50.8330264,37.3832405 56.333337,42.507467 56.333337,48.9613628 C56.333337,52.3681214 54.7245732,55.5245166 51.9957253,57.688506 C51.8863711,57.7753665 51.8304334,57.8608776 51.8145414,57.9401764 C51.5707635,59.1576794 51.3821223,59.9522877 51.0701361,60.8888628 C50.594916,62.3154624 50.0095477,63.433963 49.2508479,64.1291877 L49.25,69.0008966 C49.25,69.5774478 49.0437244,70.1321602 48.6714788,70.5676562 L48.5413052,70.7082726 L47.9548052,71.2935829 C47.5465269,71.7010331 47.0085135,71.9472708 46.4380545,71.9924438 L46.2468333,72 L41.7531667,72 C41.1766987,72 40.6218663,71.7945073 40.1859591,71.4233741 L40.0451948,71.2935829 L39.4586948,70.7082726 C39.0500646,70.3004713 38.802926,69.7626339 38.7575845,69.1921379 L38.75,69.0008966 L38.7500742,64.1303389 C37.9908364,63.4353918 37.405108,62.3168888 36.929688,60.8901616 C36.6870708,60.1620716 36.5189174,59.5192184 36.3415627,58.6971074 L36.3415627,58.6971074 L36.1853396,57.9423718 C36.1693225,57.8621087 36.1119484,57.7742989 36.0031943,57.6873534 C33.3978984,55.6197405 31.8084276,52.6427496 31.6745849,49.4036451 C31.4167043,43.0828819 37.1744013,37.5827794 43.9855192,37.4824332 Z M47.2497803,64.93 L40.7503339,64.930585 L40.7503339,64.930585 L40.75,69.0008966 C40.75,69.0829181 40.7743615,69.1621267 40.819517,69.2295127 L40.8714719,69.292624 L41.4579719,69.8779343 C41.5168871,69.93673 41.5910508,69.9759941 41.6712698,69.9919514 L41.7531667,70 L46.2468333,70 C46.3300676,70 46.4103112,69.9754348 46.4783706,69.9300797 L46.5420281,69.8779343 L47.1285281,69.292624 C47.1871501,69.2341209 47.226167,69.160792 47.2420116,69.0816468 L47.25,69.0008966 L47.2497803,64.93 Z M44.3063684,39.4816993 L44.0147348,39.4822198 C38.2855516,39.5666262 33.4628662,44.1735486 33.6729011,49.3215943 C33.7820976,51.9642387 35.0857939,54.4059897 37.2492442,56.1229534 C37.7127239,56.4934571 38.0336487,56.9846256 38.1465414,57.5503423 L38.1465414,57.5503423 L38.2923254,58.2551437 C38.4571138,59.0201871 38.6104881,59.6077937 38.8271167,60.2578925 C39.4038987,61.9888053 40.1115154,62.9306042 40.7615037,62.9306042 L40.7615037,62.9306042 L47.2385037,62.9306042 C47.8881883,62.9306042 48.5958283,61.9883709 49.1726447,60.256782 C49.3583753,59.699223 49.4975254,59.1880148 49.63735,58.571072 L49.63735,58.571072 L49.7791496,57.9132515 L49.8534997,57.5473462 C49.9669062,56.981464 50.287731,56.491024 50.7524064,56.121931 C53.0151438,54.327569 54.333337,51.7412735 54.333337,48.9613628 C54.333337,43.6494633 49.7707447,39.3988385 44.0147348,39.4822198 Z M61.8947899,40.1569608 C62.1237647,40.6158411 61.9670572,41.1664053 61.547835,41.4401484 L61.4464875,41.4982382 L57.1964875,43.6189278 C56.7023086,43.865516 56.1017983,43.6648042 55.8552101,43.1706254 C55.6262353,42.7117451 55.7829428,42.1611809 56.202165,41.8874378 L56.3035125,41.829348 L60.5535125,39.7086584 C61.0476914,39.4620702 61.6482017,39.662782 61.8947899,40.1569608 Z M27.3391322,39.6626084 L27.4464875,39.7086584 L31.6964875,41.829348 C32.1906663,42.0759362 32.3913781,42.6764466 32.1447899,43.1706254 C31.9158151,43.6295057 31.3816728,43.8353456 30.9108678,43.6649778 L30.8035125,43.6189278 L26.5535125,41.4982382 C26.0593337,41.25165 25.8586219,40.6511396 26.1052101,40.1569608 C26.3341849,39.6980805 26.8683272,39.4922406 27.3391322,39.6626084 Z M54.4721467,31.9960563 C54.898585,32.2809264 55.0356112,32.8367158 54.807383,33.2823551 L54.7481966,33.3830662 L51.9148632,37.6244455 C51.6080801,38.0836868 50.9870946,38.2072785 50.5278533,37.9004954 C50.101415,37.6156254 49.9643888,37.0598359 50.192617,36.6141966 L50.2518034,36.5134855 L53.0851368,32.2721062 C53.3919199,31.8128649 54.0129054,31.6892732 54.4721467,31.9960563 Z M34.8444882,32.1788694 L34.9148632,32.2721062 L37.7481966,36.5134855 C38.0549797,36.9727268 37.9313879,37.5937123 37.4721467,37.9004954 C37.0457083,38.1853655 36.4798069,38.099147 36.1555118,37.7176823 L36.0851368,37.6244455 L33.2518034,33.3830662 C32.9450203,32.9238249 33.0686121,32.3028394 33.5278533,31.9960563 C33.9542917,31.7111863 34.5201931,31.7974048 34.8444882,32.1788694 Z M42.5833333,29 C43.0961692,29 43.5188405,29.3860402 43.5766056,29.8833789 L43.5833333,30 L43.5833333,35.6551724 C43.5833333,36.2074572 43.1356181,36.6551724 42.5833333,36.6551724 C42.0704975,36.6551724 41.6478262,36.2691322 41.5900611,35.7717935 L41.5833333,35.6551724 L41.5833333,30 C41.5833333,29.4477153 42.0310486,29 42.5833333,29 Z" id="Combined-Shape"></path>
            </g>
        </g>
    </g>
</svg>
