
<svg width="285px" height="229px" viewBox="0 0 285 229" version="1.1" xmlns="http://www.w3.org/2000/svg" xmlns:xlink="http://www.w3.org/1999/xlink">
    <g id="BasisID" stroke="none" stroke-width="1" fill="none" fill-rule="evenodd">
        <g id="0001_onboarding-1" transform="translate(-67.000000, -196.000000)">
            <g id="Group-2" transform="translate(67.536212, 196.406604)">
                <path d="M163.734525,12.2017481 L268.087593,93.0127379 C285.990697,106.876897 289.264908,132.629351 275.40075,150.532454 C273.793545,152.607874 271.990741,154.52415 270.017164,156.254894 L206.401604,212.043047 C180.241891,234.984007 140.437932,232.374693 117.496971,206.21498 C111.537224,199.419045 107.109647,191.420229 104.514886,182.761677 L72.2243895,75.0103272 C62.9846782,44.177994 80.4889568,11.6931834 111.32129,2.45347211 C129.341731,-2.94682203 148.860745,0.683496476 163.734525,12.2017481 Z" id="Triangle" fill="#F4F5FF"></path>
                <g id="Group" transform="translate(119.910628, 113.451412) rotate(-10.000000) translate(-119.910628, -113.451412) translate(12.018721, 34.799038)">
                    <path d="M17.0088471,21.731871 L195.119367,21.731871 C201.194499,21.731871 206.119367,26.6567388 206.119367,32.731871 L206.119367,136.189762 C206.119367,142.264894 201.194499,147.189762 195.119367,147.189762 L17.0088471,147.189762 C10.9337148,147.189762 6.00884707,142.264894 6.00884707,136.189762 L6.00884707,32.731871 C6.00884707,26.6567388 10.9337148,21.731871 17.0088471,21.731871 Z" id="Rectangle" fill="#000000" transform="translate(106.064107, 84.460816) rotate(6.000000) translate(-106.064107, -84.460816) "></path>
                    <rect id="Rectangle" fill="#4A38D2" x="15.6732946" y="3.63797881e-12" width="200.11052" height="125.457891" rx="7.65223452"></rect>
                </g>
                <g id="Group-16" transform="translate(125.972291, 97.223386) rotate(-10.000000) translate(-125.972291, -97.223386) translate(88.652079, 58.710792)">
                    <path d="M20.3377317,25.6409396 L52.4083684,49.3704213 C53.8396474,50.4293677 55.8550088,50.1210063 56.908259,48.6819867 L71.4001576,28.883913 C72.4534078,27.4440965 72.1474977,25.4186325 70.7154261,24.3588894 L38.6447895,0.630204403 C37.2135104,-0.429538748 35.198149,-0.121177395 34.1448988,1.31784225 L19.6530002,21.1167128 C18.59975,22.5557324 18.9056601,24.5811964 20.3377317,25.6409396" id="Fill-4" fill="#FFFFFF"></path>
                    <path d="M8.1168671,31.2809021 L45.7108679,45.7356692 C47.3890713,46.3815716 49.2733417,45.5459804 49.9196064,43.8707961 L58.811759,20.8296093 C59.4580237,19.1544251 58.6217283,17.2727441 56.943525,16.6276421 L19.3495241,2.17207469 C17.6713207,1.52697268 15.7870504,2.36176349 15.1399839,4.03774811 L6.24863305,27.078935 C5.60236839,28.7541192 6.43866372,30.6358001 8.1168671,31.2809021" id="Fill-6" fill="#030303"></path>
                    <path d="M62.7907914,77.0251884 L12.4892629,77.0251884 C5.94503439,77.0251884 0.640423155,71.7719215 0.640423155,65.2920035 L0.640423155,26.7583733 C0.640423155,20.277671 5.94503439,15.0251884 12.4892629,15.0251884 L62.7907914,15.0251884 C69.3350198,15.0251884 74.6404232,20.277671 74.6404232,26.7583733 L74.6404232,65.2920035 C74.6404232,71.7719215 69.3350198,77.0251884 62.7907914,77.0251884" id="Fill-8" fill="#FFFFFF"></path>
                    <path d="M10.7498005,37.1227341 L32.2501995,37.1227341 L32.2501995,37.1227341 C38.1630687,37.1227341 43,41.9229321 43,47.7891367 C43,53.6561334 38.1630687,58.4563314 32.2501995,58.4563314 L10.7498005,58.4563314 C4.8369313,58.4563314 0,53.6561334 0,47.7891367 C0,47.7756731 0.000798173482,47.7614174 0.000798173482,47.7471617 L0,47.7471617 L0,26.4563314 C0,32.3225361 4.8369313,37.1227341 10.7498005,37.1227341" id="Fill-10" fill="#030303"></path>
                    <path d="M0.738098979,26.5387344 L0.738098979,26.4857344 L0.739098979,26.4857344 C0.739098979,26.5037344 0.738098979,26.5207344 0.738098979,26.5387344" id="Fill-12" fill="#FABC18"></path>
                    <path d="M37.3768009,47.3748272 C37.3768009,45.1661557 35.5860871,43.3748272 33.3764049,43.3748272 C31.1675147,43.3748272 29.3768009,45.1661557 29.3768009,47.3748272 C29.3768009,49.5834988 31.1675147,51.3748272 33.3764049,51.3748272 C35.5860871,51.3748272 37.3768009,49.5834988 37.3768009,47.3748272" id="Fill-14" fill="#FFFFFF"></path>
                </g>
            </g>
        </g>
    </g>
</svg>
