
<svg width="242px" height="231px" viewBox="0 0 242 231" version="1.1" xmlns="http://www.w3.org/2000/svg" xmlns:xlink="http://www.w3.org/1999/xlink">
    <g id="BasisID" stroke="none" stroke-width="1" fill="none" fill-rule="evenodd">
        <g id="0003_onboarding-3" transform="translate(-81.000000, -185.000000)">
            <g id="Group-2" transform="translate(81.964327, 185.000000)">
                <path d="M177.369428,27.4559999 L227.798243,122.939113 C236.729601,139.849957 230.275421,160.806853 213.382429,169.747649 C212.74808,170.083385 212.103451,170.399285 211.449478,170.694892 L88.4972771,226.271289 C61.7367399,238.367488 30.2474835,226.456767 18.1640544,199.66795 C11.383505,184.635554 11.9484818,167.305551 19.6937048,152.747712 L86.4263244,27.3177851 C99.7906955,2.19825434 130.966565,-7.31973622 156.059578,6.05875814 C165.138987,10.8995013 172.561386,18.352339 177.369428,27.4559999 Z" id="Triangle" fill="#F4F5FF"></path>
                <path d="M18.2197474,55.7344891 L205.889586,55.7748205 C209.885193,55.7787888 213.124058,59.0176545 213.128026,63.0132613 L213.152154,175.394357 C213.15612,179.391178 209.916752,182.631937 205.91993,182.632795 C205.918894,182.632796 205.917858,182.632796 205.916822,182.629687 L18.246983,182.589356 C14.2513763,182.585387 11.0125113,179.346522 11.0085438,175.350915 L10.9844157,62.9698194 C10.9804492,58.9729985 14.2198176,55.7322389 18.2166391,55.7313808 C18.2176754,55.7313805 18.2187118,55.7313805 18.2197474,55.7344891 Z" id="Rectangle" fill="#030303" transform="translate(112.068285, 119.182088) rotate(12.000000) translate(-112.068285, -119.182088) "></path>
                <path d="M31.5621857,48.4375208 L219.23902,48.4900669 C223.234259,48.4952372 226.472761,51.73374 226.47793,55.7289785 L226.509365,168.105689 C226.514533,172.102509 223.275375,175.343479 219.278554,175.344597 C219.277204,175.344598 219.275854,175.344598 219.274504,175.340548 L31.5976698,175.288002 C27.6024312,175.282831 24.3639293,172.044329 24.35876,168.04909 L24.3273247,55.67238 C24.3221572,51.6755597 27.5613148,48.4345893 31.5581363,48.4334713 C31.5594865,48.4334709 31.5608367,48.4334709 31.5621857,48.4375208 Z" id="Rectangle" fill="#4A38D2" transform="translate(125.418345, 111.889034) rotate(-344.000000) translate(-125.418345, -111.889034) "></path>
                <g id="Group-936" transform="translate(125.764218, 114.760166) rotate(-344.000000) translate(-125.764218, -114.760166) translate(97.392562, 75.471232)" stroke="#FFFFFF" stroke-linecap="round" stroke-linejoin="round" stroke-width="2.87307916">
                    <path d="M45.9692665,45.6588674 C40.8473229,40.9442113 39.58633,38.8340224 39.1615179,37.3050182 C37.1315612,30.0374953 29.7726323,25.8469916 22.7229021,27.9273065 C15.6704832,30.0184846 12.0515141,37.4896936 13.6243944,44.8767124 C16.9825611,60.6393069 14.7697739,65.81022 6.46442811,68.4852985" id="Stroke-914"></path>
                    <path d="M36.6317593,75.2136787 C34.8916886,73.4955674 32.5798803,68.4852985 28.1026508,68.4852985 C23.6226592,68.4852985 22.9846333,78.5778689 22.9846333,78.5778689" id="Stroke-916"></path>
                    <path d="M19.6704634,57.6718304 C21.2856117,62.8617462 18.336329,73.1729644 12.9288562,74.9733795" id="Stroke-918"></path>
                    <path d="M56.7433134,35.9556304 C49.0235207,33.3864982 48.8154619,13.6970597 26.701782,13.6970597 C11.9539247,13.6970597 0,25.961543 0,41.0911791" id="Stroke-920"></path>
                    <path d="M0,47.57926 C0,49.2604656 1.77556292,52.6255452 1.77556292,52.6255452" id="Stroke-922"></path>
                    <path d="M1.43653958,17.3015491 C3.19901132,14.3588832 10.8748981,7.20897879 24.6683889,7.20897879 C38.4618796,7.20897879 47.7981437,14.3588832 49.5606155,17.3015491" id="Stroke-924"></path>
                    <path d="M10.0557771,3.6044894 C14.135896,1.65217674 14.838234,-3.63797881e-12 25.247593,-3.63797881e-12 C36.3237632,-3.63797881e-12 39.313482,1.95231266 43.8144572,3.6044894" id="Stroke-926"></path>
                    <path d="M51.7154248,40.5836512 C48.9400993,38.2412055 45.984418,35.7073746 45.7879109,35.3677334 C42.6303388,24.7525994 31.6717061,18.636363 21.1895356,21.6931334 C16.0615093,23.1999541 11.8191105,26.6556681 9.24029204,31.4214266 C6.65878165,36.1871851 6.05041737,41.6942239 7.52287428,46.9317062 C10.0209365,55.808201 6.01811484,60.533526 1.43653958,61.9972176" id="Stroke-928"></path>
                    <path d="M44.532727,53.0490586 C39.5858937,48.5882256 34.3751575,43.1406022 33.1633584,38.8176494 C32.1481401,35.1976158 28.4615779,33.1104866 24.9285102,34.1486441 C21.3981355,35.1895052 19.3569272,38.9663438 20.3721456,42.5863774 C22.957317,51.7973218 31.9784882,60.3215683 40.9538802,67.7644007" id="Stroke-930"></path>
                    <path d="M26.5759822,41.0911791 C29.0489866,49.9455013 38.871342,57.5754621 44.532727,61.9972176" id="Stroke-932"></path>
                    <path d="M53.1519644,20.9060385 C53.1519644,20.9060385 55.8447491,24.8601148 56.7433134,27.3941194" id="Stroke-934"></path>
                </g>
                <path d="M209.513458,56.0178911 C215.280949,56.0178911 219.968319,60.4989363 220.122962,66.0764198 L220.126902,66.3609491 L220.126902,77.7954795 C220.126902,79.3624029 218.85666,80.6326452 217.289737,80.6326452 L214.525319,80.6326452 C212.958395,80.6326452 211.688153,79.3624029 211.688153,77.7954795 L211.688153,66.3609491 L211.688153,66.3609491 C211.688153,65.228093 210.794037,64.3061833 209.668336,64.2281587 L209.513458,64.2228092 L195.538133,64.2228092 C193.97121,64.2228092 192.700967,62.9525668 192.700967,61.3856435 L192.700967,58.8550568 C192.700967,57.2881335 193.97121,56.0178911 195.538133,56.0178911 L209.513458,56.0178911 L209.513458,56.0178911 Z M40.591285,56.2478866 C34.8237934,56.2478866 30.1364239,60.7289317 29.9817803,66.3064152 L29.9778403,66.5909445 L29.9778403,78.025475 C29.9778403,79.5923983 31.2480826,80.8626407 32.815006,80.8626407 L35.5794238,80.8626407 C37.1463471,80.8626407 38.4165895,79.5923983 38.4165895,78.025475 L38.4165895,66.5909445 L38.4165895,66.5909445 C38.4165895,65.4580884 39.3107052,64.5361787 40.436407,64.4581542 L40.591285,64.4528046 L54.5666094,64.4528046 C56.1335327,64.4528046 57.4037751,63.1825622 57.4037751,61.6156389 L57.4037751,59.0850522 C57.4037751,57.5181289 56.1335327,56.2478866 54.5666094,56.2478866 L40.591285,56.2478866 L40.591285,56.2478866 Z M40.6173952,169.511348 C34.8499036,169.511348 30.1625341,165.030302 30.0078905,159.452819 L30.0039505,159.16829 L30.0039505,147.733759 C30.0039505,146.166836 31.2741928,144.896593 32.8411162,144.896593 L35.605534,144.896593 C37.1724573,144.896593 38.4426997,146.166836 38.4426997,147.733759 L38.4426997,159.16829 L38.4426997,159.16829 C38.4426997,160.301146 39.3368154,161.223055 40.4625172,161.30108 L40.6173952,161.30643 L54.5927196,161.30643 C56.1596429,161.30643 57.4298853,162.576672 57.4298853,164.143595 L57.4298853,166.674182 C57.4298853,168.241105 56.1596429,169.511348 54.5927196,169.511348 L40.6173952,169.511348 L40.6173952,169.511348 Z M209.602347,169.260932 C215.369839,169.260932 220.057209,164.779887 220.211852,159.202404 L220.215792,158.917874 L220.215792,147.483344 C220.215792,145.91642 218.94555,144.646178 217.378626,144.646178 L214.614209,144.646178 C213.047285,144.646178 211.777043,145.91642 211.777043,147.483344 L211.777043,158.917874 L211.777043,158.917874 C211.777043,160.05073 210.882927,160.97264 209.757225,161.050665 L209.602347,161.056014 L195.627023,161.056014 C194.0601,161.056014 192.789857,162.326257 192.789857,163.89318 L192.789857,166.423767 C192.789857,167.99069 194.0601,169.260932 195.627023,169.260932 L209.602347,169.260932 L209.602347,169.260932 Z" id="Shape" fill="#FFFFFF" fill-rule="nonzero" transform="translate(125.096816, 112.764619) rotate(-344.000000) translate(-125.096816, -112.764619) "></path>
            </g>
        </g>
    </g>
</svg>
