
<svg width="33px" height="24px" viewBox="0 0 33 24" version="1.1" xmlns="http://www.w3.org/2000/svg" xmlns:xlink="http://www.w3.org/1999/xlink">
    <g id="Symbols" stroke="none" stroke-width="1" fill="none" fill-rule="evenodd" stroke-linecap="round">
        <g id="Navigation/wallet" transform="translate(-316.000000, -35.000000)" stroke="#030303" stroke-width="1.2">
            <g id="Group-6" transform="translate(300.772973, 35.451613)">
                <g id="Group-2" transform="translate(16.227027, 0.000000)">
                    <g id="Group-30" transform="translate(15.000000, 6.000000)" stroke-linejoin="round">
                        <path d="M16,8 C16,12.4182857 12.4182857,16 8,16 C3.58171429,16 0,12.4182857 0,8 C0,3.58171429 3.58171429,0 8,0 C12.4182857,0 16,3.58171429 16,8 L16,8 Z" id="Stroke-26"></path>
                        <polyline id="Stroke-28" points="8 3 8 8 12.1666667 8"></polyline>
                    </g>
                    <g id="Stacked-Group">
                        <line x1="0.692307692" y1="0.5" x2="19.5" y2="0.5" id="Line-3"></line>
                        <line x1="0.692307692" y1="5.5" x2="13.5" y2="5.5" id="Line-3"></line>
                        <line x1="0.585798817" y1="10.5" x2="10.5769231" y2="10.5" id="Line-3"></line>
                        <line x1="0.585798817" y1="15.5" x2="10.5769231" y2="15.5" id="Line-3"></line>
                    </g>
                </g>
            </g>
        </g>
    </g>
</svg>
