
<svg width="27px" height="27px" viewBox="0 0 27 27" version="1.1" xmlns="http://www.w3.org/2000/svg" xmlns:xlink="http://www.w3.org/1999/xlink">
    <g id="Symbols" stroke="none" stroke-width="1" fill="none" fill-rule="evenodd" stroke-linecap="round" stroke-linejoin="round">
        <g id="Navigation/activities" transform="translate(-68.000000, -31.000000)" stroke="#030303" stroke-width="1.5">
            <g id="Group-8" transform="translate(62.197297, 32.451613)">
                <g id="money-wallet" transform="translate(6.910811, 0.000000)">
                    <path d="M23.1567568,19.1798828 L23.1567568,20.8250441 C23.1567568,22.6422391 21.6756663,24.1153667 19.8486486,24.1153667 L3.30810811,24.1153667 C1.48109045,24.1153667 0,22.6422391 0,20.8250441 L0,9.30891509 C0,7.4917201 1.48109045,6.01859251 3.30810811,6.01859251 L19.8486486,6.01859251 C21.6756663,6.01859251 23.1567568,7.4917201 23.1567568,9.30891509 L23.1567568,10.9540764" id="Path"></path>
                    <path d="M19.8486486,6.01859251 L17.2804541,0.909818314 C17.0843058,0.519369554 16.7401992,0.222451723 16.3238829,0.0844257156 C15.9075666,-0.0536002921 15.4531677,-0.0214199547 15.0607135,0.17388283 L3.30810811,6.01859251" id="Path"></path>
                    <path d="M23.1567568,19.1798828 C24.0702656,19.1798828 24.8108108,18.443319 24.8108108,17.5347215 L24.8108108,12.5992377 C24.8108108,11.6906402 24.0702656,10.9540764 23.1567568,10.9540764 L19.0216216,10.9540764 C16.7378496,10.9540764 14.8864866,12.7954859 14.8864866,15.0669796 C14.8864866,17.3384733 16.7378496,19.1798828 19.0216216,19.1798828 L23.1567568,19.1798828 Z" id="Path"></path>
                    <path d="M19.0216216,14.6556893 C19.2499988,14.6556893 19.4351351,14.8398302 19.4351351,15.0669796 C19.4351351,15.294129 19.2499988,15.4782699 19.0216216,15.4782699 C18.7932444,15.4782699 18.6081081,15.294129 18.6081081,15.0669796 C18.6081081,14.8398302 18.7932444,14.6556893 19.0216216,14.6556893" id="Path"></path>
                </g>
            </g>
        </g>
    </g>
</svg>
