
<svg width="152px" height="160px" viewBox="0 0 152 160" version="1.1" xmlns="http://www.w3.org/2000/svg" xmlns:xlink="http://www.w3.org/1999/xlink">
    <defs>
        <path d="M40.6717831,52.6524445 L106.023269,101.379802 C108.939838,103.554297 113.046612,102.921092 115.192858,99.9661341 L144.723519,59.3117355 C146.869765,56.3551412 146.246401,52.1959476 143.328217,50.0198157 L77.976731,1.29409464 C75.0601623,-0.882037299 70.9533882,-0.248831991 68.8071425,2.70612611 L39.2764811,43.3621609 C37.1302354,46.317119 37.7535995,50.4763126 40.6717831,52.6524445" id="path-6_g0vcygq7-1"></path>
        <path d="M18.2127133,63.3522982 L94.1100357,93.0745468 C97.4981067,94.4026672 101.3022,92.684504 102.606923,89.2399489 L120.559005,41.8620921 C121.863727,38.417537 120.175358,34.5483782 116.787287,33.2219036 L40.8899643,3.49800923 C37.5018933,2.17153457 33.6978002,3.88805203 32.3914585,7.33425294 L14.4409955,54.7121097 C13.1362725,58.1566648 14.8246423,62.0258236 18.2127133,63.3522982" id="path-6_g0vcygq7-2"></path>
        <path d="M127.820346,159.103185 L25.1780378,159.103185 C11.8242743,159.103185 1,148.164258 1,134.671063 L1,54.4321216 C1,40.937294 11.8242743,30 25.1780378,30 L127.820346,30 C141.174109,30 152,40.937294 152,54.4321216 L152,134.671063 C152,148.164258 141.174109,159.103185 127.820346,159.103185" id="path-6_g0vcygq7-3"></path>
        <path d="M22.7495963,76.0249326 L66.2504037,76.0249326 L66.2504037,76.0249326 C78.2136506,76.0249326 88,85.9368064 88,98.0498652 C88,110.164559 78.2136506,120.076433 66.2504037,120.076433 L22.7495963,120.076433 C10.7863494,120.076433 1,110.164559 1,98.0498652 C1,98.0220642 1.00161491,97.9926278 1.00161491,97.9631915 L1,97.9631915 L1,54 C1,66.1130588 10.7863494,76.0249326 22.7495963,76.0249326" id="path-6_g0vcygq7-4"></path>
    </defs>
    <g id="BasisID" stroke="none" stroke-width="1" fill="none" fill-rule="evenodd">
        <g id="0000_splash-screen" transform="translate(-131.000000, -273.000000)">
            <g id="Group-16" transform="translate(131.000000, 273.000000)">
                <g id="Fill-4">
                    <use fill="#FFFFFF" xlink:href="#path-6_g0vcygq7-1"></use>
                    <use fill-opacity="0.33" fill="#4A38D2" xlink:href="#path-6_g0vcygq7-1"></use>
                </g>
                <g id="Fill-6">
                    <use fill="#FFFFFF" xlink:href="#path-6_g0vcygq7-2"></use>
                    <use fill-opacity="0.66" fill="#4A38D2" xlink:href="#path-6_g0vcygq7-2"></use>
                </g>
                <g id="Fill-8">
                    <use fill="#483DE1" xlink:href="#path-6_g0vcygq7-3"></use>
                    <use fill="#FFFFFF" xlink:href="#path-6_g0vcygq7-3"></use>
                </g>
                <g id="Fill-10">
                    <use fill="#FFFFFF" xlink:href="#path-6_g0vcygq7-4"></use>
                    <use fill="#4A38D2" xlink:href="#path-6_g0vcygq7-4"></use>
                </g>
                <path d="M0.999,53.9315847 L0.999,53.8238293 L1.001,53.8238293 C1.001,53.8604255 0.999,53.8949885 0.999,53.9315847" id="Fill-12" fill="#FABC18"></path>
                <path d="M76,97.5898089 C76,93.0993124 72.4185724,89.4573248 67.999208,89.4573248 C63.5814276,89.4573248 60,93.0993124 60,97.5898089 C60,102.080305 63.5814276,105.722293 67.999208,105.722293 C72.4185724,105.722293 76,102.080305 76,97.5898089" id="Fill-14" fill="#FFFFFF"></path>
            </g>
        </g>
    </g>
</svg>
