
<svg width="60px" height="60px" viewBox="0 0 60 60" version="1.1" xmlns="http://www.w3.org/2000/svg" xmlns:xlink="http://www.w3.org/1999/xlink">
    <g id="Symbols" stroke="none" stroke-width="1" fill="none" fill-rule="evenodd">
        <g id="Navigation/wallet" transform="translate(-177.000000, 0.000000)">
            <g id="Group" transform="translate(177.000000, 0.000000)">
                <circle id="Oval" stroke="#D6D6DB" fill="#FFFFFF" cx="30" cy="30" r="29.5"></circle>
                <g id="qr-code-scan" transform="translate(18.000000, 18.000000)" stroke="#030303" stroke-linecap="round" stroke-linejoin="round" stroke-width="1.5">
                    <rect id="Rectangle" x="4.96216216" y="4.93548387" width="3.30810811" height="3.29032258"></rect>
                    <rect id="Rectangle" x="4.96216216" y="16.4516129" width="3.30810811" height="3.29032258"></rect>
                    <rect id="Rectangle" x="16.5405405" y="4.93548387" width="3.30810811" height="3.29032258"></rect>
                    <polyline id="Path" points="4.96216216 13.1612903 11.5783784 13.1612903 11.5783784 14.8064516"></polyline>
                    <polyline id="Path" points="14.8864865 14.8064516 14.8864865 19.7419355 19.8486486 19.7419355 19.8486486 14.8064516 18.1945946 14.8064516"></polyline>
                    <line x1="11.5783784" y1="18.0967742" x2="11.5783784" y2="19.7419355" id="Path"></line>
                    <polyline id="Path" points="11.5783784 4.93548387 11.5783784 9.87096774 13.2324324 9.87096774"></polyline>
                    <line x1="16.5405405" y1="11.516129" x2="19.8486486" y2="11.516129" id="Path"></line>
                    <path d="M0,5.75806452 L0,1.64516129 C0,0.736563799 0.740545225,0 1.65405405,0 L5.78918919,0" id="Path"></path>
                    <path d="M19.0216216,0 L23.1567568,0 C24.0702656,0 24.8108108,0.736563799 24.8108108,1.64516129 L24.8108108,5.75806452" id="Path"></path>
                    <path d="M24.8108108,18.9193548 L24.8108108,23.0322581 C24.8108108,23.9408556 24.0702656,24.6774194 23.1567568,24.6774194 L19.0216216,24.6774194" id="Path"></path>
                    <path d="M5.78918919,24.6774194 L1.65405405,24.6774194 C0.740545225,24.6774194 0,23.9408556 0,23.0322581 L0,18.9193548" id="Path"></path>
                </g>
            </g>
        </g>
    </g>
</svg>
